<?xml version="1.0" encoding="UTF-8"?>
<svg id="Layer_1" xmlns="http://www.w3.org/2000/svg" version="1.1" viewBox="0 0 1901 601">
  <!-- Generator: Adobe Illustrator 29.5.1, SVG Export Plug-In . SVG Version: 2.1.0 Build 141)  -->
  <defs>
    <style>
      .st0, .st1 {
        fill: #fff;
      }

      .st1 {
        fill-rule: evenodd;
      }
    </style>
  </defs>
  <path class="st0" d="M1048.38,334.12c-6.53,0-12.41-1.44-17.65-4.33-5.24-2.89-9.35-6.89-12.33-12-2.98-5.12-4.47-10.84-4.47-17.18s1.49-12.07,4.47-17.18c2.98-5.12,7.11-9.12,12.38-12,5.27-2.89,11.17-4.33,17.7-4.33,4.89,0,9.41.82,13.56,2.45,4.14,1.63,7.66,4.02,10.54,7.15l-4.42,4.43c-5.15-5.21-11.64-7.81-19.49-7.81-5.21,0-9.95,1.19-14.22,3.58-4.27,2.38-7.61,5.65-10.03,9.79-2.42,4.14-3.62,8.79-3.62,13.93s1.21,9.79,3.62,13.93c2.42,4.14,5.76,7.41,10.03,9.79,4.27,2.38,9.01,3.58,14.22,3.58,7.91,0,14.4-2.64,19.49-7.91l4.42,4.42c-2.89,3.14-6.42,5.54-10.59,7.2-4.17,1.66-8.71,2.5-13.6,2.5h0Z"/>
  <path class="st0" d="M1129.91,315.95h-36.72l-7.91,17.6h-7.25l30.13-65.9h6.87l30.13,65.9h-7.34l-7.91-17.6h0ZM1127.37,310.3l-15.82-35.4-15.82,35.4h31.63Z"/>
  <path class="st0" d="M1177.08,334.12c-4.9,0-9.59-.79-14.07-2.35-4.49-1.57-7.96-3.64-10.4-6.21l2.73-5.37c2.39,2.38,5.55,4.31,9.51,5.79,3.96,1.48,8.03,2.21,12.24,2.21,5.9,0,10.32-1.08,13.27-3.25,2.95-2.17,4.42-4.97,4.42-8.43,0-2.64-.8-4.74-2.4-6.31-1.6-1.57-3.56-2.78-5.88-3.62-2.32-.85-5.55-1.77-9.7-2.78-4.96-1.25-8.91-2.46-11.86-3.62-2.95-1.16-5.48-2.93-7.58-5.32-2.1-2.38-3.15-5.62-3.15-9.7,0-3.33.88-6.35,2.64-9.09,1.76-2.73,4.46-4.91,8.1-6.54,3.64-1.63,8.16-2.45,13.56-2.45,3.77,0,7.45.52,11.06,1.55,3.61,1.04,6.73,2.46,9.37,4.28l-2.35,5.55c-2.76-1.82-5.71-3.18-8.85-4.1-3.14-.91-6.21-1.36-9.23-1.36-5.77,0-10.12,1.11-13.04,3.34-2.92,2.23-4.38,5.1-4.38,8.61,0,2.64.8,4.75,2.4,6.35,1.6,1.6,3.61,2.82,6.03,3.67,2.42.85,5.66,1.77,9.74,2.78,4.83,1.19,8.74,2.37,11.72,3.53,2.98,1.16,5.51,2.92,7.58,5.27,2.07,2.35,3.11,5.54,3.11,9.56,0,3.33-.89,6.36-2.68,9.09-1.79,2.73-4.53,4.9-8.24,6.5-3.7,1.6-8.25,2.4-13.65,2.4h0Z"/>
  <polygon class="st0" points="1231.5 273.68 1208.34 273.68 1208.34 267.65 1261.62 267.65 1261.62 273.68 1238.46 273.68 1238.46 333.55 1231.5 333.55 1231.5 273.68 1231.5 273.68"/>
  <polygon class="st0" points="1006.2 268.69 1006.2 334.27 999.55 334.27 999.55 291.77 974.48 330.06 966.89 330.06 1006.2 268.69 1006.2 268.69"/>
  <polygon class="st0" points="935.16 268.69 935.16 334.27 941.82 334.27 941.82 291.77 965.21 327.49 969.02 321.53 935.16 268.69 935.16 268.69"/>
  <polygon class="st1" points="965.25 327.36 1004.22 267.94 1000.21 267.97 963.39 324.72 965.25 327.36 965.25 327.36"/>
  <path class="st0" d="M783.55,287.4c.59,0,1.14-.35,1.4-.93.08-.19,2.09-4.74,1.98-10.25-.02-.87-.71-1.57-1.59-1.55-.86.02-1.55.74-1.53,1.62.1,4.75-1.67,8.81-1.7,8.88-.36.8,0,1.73.78,2.09.21.1.44.15.66.14h0Z"/>
  <path class="st0" d="M777.13,288.41c.21.1.44.14.66.14.59,0,1.15-.35,1.4-.93.09-.19,2.09-4.74,1.98-10.25-.02-.87-.73-1.54-1.59-1.55-.86.02-1.55.74-1.53,1.62.1,4.75-1.68,8.82-1.7,8.88-.35.79,0,1.73.78,2.1h0Z"/>
  <path class="st0" d="M790.26,316.29c.28.21.62.31.95.31.47,0,.93-.23,1.24-.64.51-.7.37-1.69-.33-2.22-6.84-5.12-8.98-12.14-9-12.21-.25-.84-1.11-1.31-1.94-1.07-.83.25-1.3,1.13-1.05,1.97.09.33,2.43,8.07,10.14,13.86h0Z"/>
  <path class="st0" d="M851.93,288.08c1.77,11.85,1.17,23.79-1.77,35.5-2.47,9.82-6.49,19.03-11.96,27.39-5.29,8.08-11.82,15.2-19.41,21.18-7.51,5.91-15.86,10.54-24.82,13.75-16.37,5.87-34.19,6.68-51.13,2.3-11.55-2.99-22.17-8.18-31.57-15.43-9.08-7-16.66-15.62-22.51-25.62-5.85-10-9.68-20.87-11.4-32.31-1.77-11.84-1.17-23.79,1.77-35.5,2.47-9.82,6.49-19.03,11.96-27.39,5.29-8.08,11.81-15.21,19.4-21.18,7.51-5.91,15.87-10.54,24.83-13.75,9.1-3.26,18.58-4.98,28.2-5.09,7.69-.09,15.4.85,22.93,2.79,11.55,2.99,22.17,8.18,31.57,15.43,9.08,7,16.66,15.62,22.51,25.62,5.85,10,9.68,20.87,11.4,32.31h0ZM787.26,211.52c-7.8-2.02-15.8-2.99-23.78-2.89-41.3.51-77.29,29.25-87.51,69.9-12.47,49.6,17.16,100.23,66.06,112.88,7.8,2.02,15.8,2.99,23.78,2.89,41.31-.51,77.29-29.25,87.51-69.9,6.04-24.03,2.5-49-9.98-70.32-12.48-21.32-32.39-36.44-56.08-42.57h0Z"/>
  <polygon class="st0" points="709.63 335.53 709.69 335.62 709.7 335.62 710.11 336.22 719.28 329.64 717.24 326.71 708.07 333.27 708.48 333.87 709.28 335.02 709.28 335.03 709.63 335.53 709.63 335.53"/>
  <polygon class="st0" points="733.77 252.51 736.81 250.67 733.11 244.35 732.49 244.72 732.49 244.72 731.31 245.43 730.07 246.18 733.77 252.51 733.77 252.51"/>
  <polygon class="st0" points="709.85 285.39 702.81 283.58 702.46 284.99 702.46 284.99 702.13 286.33 701.94 287.06 708.97 288.87 709.85 285.39 709.85 285.39"/>
  <path class="st0" d="M718.94,274.77l-10.06-7.18-.39.69c-.36.62-.7,1.25-1.04,1.89l-.31.57,9.77,6.97,2.04-2.94h0Z"/>
  <path class="st0" d="M761.9,235.68l.13,11.15,3.54-.04-.13-11.16h-1.1c-.42-.02-.85,0-1.27,0l-1.18.04h0Z"/>
  <path class="st0" d="M747.89,238.23l-.54.15-1.25.36-.08.02h0s-.02,0-.03,0l-.66.19,1.97,7.11,3.41-.97-1.97-7.11-.7.2-.15.04h0Z"/>
  <path class="st0" d="M716.88,256.78l5.68,5.63,2.47-2.57-5.69-5.63-.5.51c-.5.51-1,1.02-1.48,1.54l-.49.52h0Z"/>
  <path class="st0" d="M707.64,300.27l-7.98.1v1.2c-.01.23-.02.46-.02.69,0,.19.01.38.02.57l.04,1.13,7.98-.1-.04-3.59h0Z"/>
  <polygon class="st0" points="709 315.34 701.96 317.34 702.16 318.05 702.73 320.1 702.92 320.8 709.96 318.79 709 315.34 709 315.34"/>
  <path class="st0" d="M799.58,341.17l.18,15.36.83-.57c.71-.48,1.41-.98,2.1-1.5l.22-.17-.06-5.44,5.88-.08.45.18.32-.31c.49-.47.97-.95,1.44-1.44l.38-.4-.4-.38c-.59-.56-1.36-.87-2.16-.86l-5.95.07-.05-4.5c-.02-1.73-1.43-3.12-3.14-3.1l-21.72.27c-5.06.06-9.91,2.66-12.86,6.84-3.04-4.1-7.96-6.59-13.03-6.52h-.03l-21.67.27c-1.71.02-3.08,1.45-3.06,3.18l.05,4.51-5.95.07c-.81,0-1.57.34-2.15.91l-.39.39.39.39c.48.48.98.94,1.56,1.48l.26.32.36-.27,5.95-.07.06,5.44.23.16c.7.5,1.41.98,2.13,1.45l.84.55-.26-15.27,21.68-.27c4.87-.06,9.42,2.75,11.61,7.16l1.46,2.95.02-.03v.03s1.41-2.98,1.41-2.98c2.08-4.46,6.57-7.38,11.45-7.44l21.59-.35h0Z"/>
  <path class="st0" d="M771.66,354.71c2.12-1.47,4.6-2.27,7.18-2.3l16.21-.2-.04-3.02-16.22.2c-3.14.04-6.17,1.01-8.77,2.8l-.43.3,1.6,2.55.47-.34h0Z"/>
  <path class="st0" d="M795.12,358.89l-.04-3.02-16.22.2c-3.14.04-6.17,1.01-8.77,2.8l-.43.3,1.61,2.54.46-.32c2.12-1.48,4.6-2.27,7.18-2.3l16.21-.2h0Z"/>
  <path class="st0" d="M765.34,367.11c.21,0,.41-.01.62-.02l.96-.03-.15-12.91-3.18.04.15,12.91h.97c.21,0,.42.01.63.01h0Z"/>
  <path class="st0" d="M759.29,361.87l1.54-2.59-.44-.29c-2.64-1.73-5.69-2.62-8.83-2.58l-16.22.2.04,3.02,16.22-.2c2.57-.03,5.07.7,7.23,2.13l.47.32h0Z"/>
  <path class="st0" d="M759.21,355.19l1.54-2.59-.44-.29c-2.64-1.73-5.69-2.62-8.83-2.58l-16.22.2.04,3.02,16.22-.2c2.57-.03,5.07.7,7.23,2.13l.47.32h0Z"/>
  <path class="st0" d="M765.82,400.62c-53.91.66-98.29-43.29-98.95-97.96-.65-54.68,42.68-99.7,96.58-100.36s98.29,43.29,98.95,97.96c.65,54.68-42.68,99.7-96.58,100.36h0ZM763.38,195.86c-57.41.7-103.55,48.65-102.85,106.88.69,58.23,47.96,105.03,105.37,104.33,57.41-.7,103.55-48.65,102.85-106.88-.69-58.23-47.96-105.03-105.37-104.32h0Z"/>
  <path class="st0" d="M836.27,334.47c1.9-4.26,3.45-8.74,4.6-13.3.81-3.2,1.41-6.49,1.82-9.78-.64.13-1.3.21-1.98.22-.43,0-.85-.02-1.27-.07-.39,2.97-.95,5.93-1.68,8.83-1.1,4.38-2.58,8.67-4.41,12.76l-.22.5,2.92,1.34.23-.5h0Z"/>
  <path class="st0" d="M839.09,288.84c.04.23.07.47.1.7.41-.05.83-.09,1.25-.09.68,0,1.34.06,1.99.17-.06-.44-.12-.88-.19-1.31-1.22-7.41-3.48-14.6-6.7-21.4l-.23-.5-2.89,1.41.24.5c3.09,6.52,5.26,13.43,6.43,20.53h0Z"/>
  <path class="st0" d="M836.96,305.88s0,0,0,0c0,0,0,0,0,0t0,0h0Z"/>
  <path class="st0" d="M845.15,305.78s0,0,0,0t-.01,0s0,0,0,0h0Z"/>
  <path class="st0" d="M836.92,296.22s0,0,.02,0c0,0,0,0,0,0,0,0-.02,0-.03-.01h0Z"/>
  <path class="st0" d="M844.96,296.13s0,0,0,0c0,0,0,0,0,0,0,0,0,0,0,0,0,0,0,0,0,0h0Z"/>
  <path class="st0" d="M841.65,307.12s.01,0,.02-.01c0,0,0,0,0,0,0,0,0,0-.01,0h0Z"/>
  <path class="st0" d="M839.89,294.08s0,0,0,0c0,0,0,0,0,0,0,0,0,0,0,0h0Z"/>
  <path class="st0" d="M845.14,305.78s0,0,0,0c0,0,0,0,0,0,0,0,0,0,0,0h0Z"/>
  <polygon class="st0" points="836.96 305.88 836.96 305.88 836.96 305.88 836.96 305.88 836.96 305.88"/>
  <path class="st0" d="M839.34,294.66s0,0,0,0c0,0-.01.02-.02.03.02-.02.02-.03.02-.03h0Z"/>
  <polygon class="st0" points="734.91 186.29 736.61 186.28 736.96 187.78 731.99 189.41 731.52 187.94 732.48 187.09 731 182.42 730.44 180.5 730.38 180.52 730.34 182.64 730.14 188.56 730.17 190 727.92 190.74 727.13 189.54 723.55 184.87 722.28 183.18 722.24 183.2 722.87 185.09 724.35 189.74 725.69 189.85 726.04 191.35 721.34 192.89 720.88 191.42 722.21 190.44 719.96 183.35 718.31 183.34 717.85 181.88 723.21 180.12 723.98 181.32 727.4 185.84 728.24 187.02 728.29 187.01 728.29 185.55 728.5 179.84 728.44 178.41 733.58 176.73 733.93 178.23 732.66 179.19 734.91 186.29 734.91 186.29"/>
  <path class="st0" d="M750.36,180.2l-1.85-3.62-.58,3.94,2.43-.32h0ZM755.85,183.31l.07,1.52-5,.65-.19-1.52,1.24-.63-.77-1.5-3.53.46-.24,1.65,1.31.28.19,1.52-4.91.64-.19-1.51,1.03-.66,1.89-8.46.23-1.42,3.14-.41.58,1.33,3.93,7.68,1.21.36h0Z"/>
  <polygon class="st0" points="772.59 180.72 771.97 184.8 763.26 184.56 763.3 183.03 764.88 182.55 765.07 175.1 763.52 174.54 763.56 173 769.74 173.17 769.58 174.7 767.62 175.16 767.43 182.55 770.15 182.62 771.02 180.68 772.59 180.72 772.59 180.72"/>
  <polygon class="st0" points="791.02 175.74 790.32 179.88 788.85 179.62 788.67 177.52 786.83 177.21 785.61 184.49 787.55 185.35 787.18 186.85 780.76 185.73 781.01 184.22 783.09 184.05 783.13 184.06 784.35 176.77 782.52 176.46 781.67 178.38 780.21 178.12 780.9 173.99 781.09 173.88 782.66 174.33 789.24 175.47 790.84 175.57 791.02 175.74 791.02 175.74"/>
  <path class="st0" d="M803.35,185.8l-.12-4.08-2.21,3.3,2.33.78h0ZM806.98,191.02l-.58,1.4-4.78-1.6.48-1.46,1.39-.03-.06-1.69-3.38-1.13-.92,1.38,1.06.83-.48,1.46-4.7-1.58.47-1.44,1.21-.14,5.32-6.8.81-1.18,3.01,1.01-.04,1.46.26,8.65.94.86h0Z"/>
  <path class="st0" d="M832,204.2c-.55.38-2.42,1.01-4.6-.42-2.68-1.75-3.19-4.63-1.29-7.62,2.01-3.16,5.36-3.97,8.51-1.92.84.55,1.61,1.28,2.03,1.94l-2.12,3.34-1.23-.8.61-1.88c-.32-.35-.7-.68-1.13-.96-1.66-1.08-3.16-.67-4.34,1.19-1.35,2.12-1.02,3.9.82,5.09,1.2.79,2.11.7,2.84.54l.13.08-.21,1.42h0Z"/>
  <path class="st0" d="M847.27,212.09c1.57-1.79,1.54-3.58.04-4.93-1.52-1.38-3.14-.89-4.49.64-1.57,1.79-1.55,3.57-.04,4.93,1.53,1.38,3.14.89,4.48-.64h0ZM840.69,206.44c2.5-2.85,5.9-3.14,8.52-.77,2.42,2.18,2.49,5.14.19,7.75-2.5,2.85-5.88,3.15-8.5.78-2.43-2.19-2.5-5.15-.21-7.77h0Z"/>
  <polygon class="st0" points="859.68 228.31 856.24 230.51 850.7 223.69 851.87 222.72 853.26 223.61 858.93 218.87 858.33 217.32 859.5 216.34 863.43 221.17 862.18 222.06 860.55 220.87 854.93 225.57 856.67 227.7 858.68 227.09 859.68 228.31 859.68 228.31"/>
  <polygon class="st0" points="869.1 243 865.39 244.67 860.88 237.11 862.18 236.31 863.43 237.41 869.72 233.55 869.35 231.92 870.65 231.13 873.84 236.49 872.48 237.18 871.04 235.77 864.8 239.59 866.21 241.95 868.3 241.64 869.1 243 869.1 243"/>
  <polygon class="st0" points="876.57 259.61 872.67 260.7 869.05 251.86 870.45 251.27 871.52 252.54 878.31 249.68 878.18 248.02 879.58 247.43 882.54 254.66 883.32 256.11 883.26 256.33 879.95 257.72 879.35 256.27 880.64 255.23 879.34 252.05 876.84 253.11 877.38 254.43 878.37 254.29 878.93 255.64 875.55 257.07 874.99 255.71 875.79 255.1 875.25 253.77 872.45 254.95 873.76 258.14 875.98 258.16 876.57 259.61 876.57 259.61"/>
  <path class="st0" d="M882.01,278.1l-.54-.72-2.66.65c-.99-.72-2.01-2.19-2.44-3.99-.84-3.52.85-5.85,4.29-6.7,3.69-.9,6.51,1.02,7.48,5.11.24,1.02.34,2.24.19,3.02l-3.66.9-.36-1.53,1.56-.86c0-.55-.05-1.11-.18-1.66-.53-2.21-1.93-3.2-4.05-2.68-2.35.57-3.4,2.11-2.89,4.24.16.65.35,1.12.62,1.48l1.42-.35v-.03s.11-1.56.11-1.56l1.34-.33,1.11,4.66-1.34.33h0Z"/>
  <polygon class="st0" points="883.83 296.63 879.79 296.45 879.01 286.92 880.52 286.8 881.15 288.34 888.48 287.72 888.86 286.1 890.37 285.97 891.01 293.78 891.31 295.4 891.19 295.58 887.61 295.88 887.48 294.32 889.02 293.72 888.74 290.3 886.05 290.52 886.16 291.95 887.15 292.13 887.27 293.59 883.62 293.9 883.5 292.44 884.45 292.1 884.33 290.67 881.32 290.92 881.6 294.36 883.7 295.07 883.83 296.63 883.83 296.63"/>
  <path class="st0" d="M883.06,325.76c2.33.41,3.81-.55,4.16-2.55.36-2.04-.9-3.17-2.89-3.53-2.33-.42-3.81.53-4.16,2.55-.35,2.04.9,3.18,2.89,3.53h0ZM884.34,317.12c3.7.66,5.73,3.44,5.12,6.94-.56,3.23-3,4.85-6.4,4.24-3.7-.66-5.73-3.42-5.12-6.93.56-3.25,3-4.86,6.41-4.25h0Z"/>
  <polygon class="st0" points="882.87 347.66 879.47 346.48 879.98 344.98 881.63 345.06 882.71 341.86 880.17 340.97 879.72 342.3 880.52 342.85 880.05 344.24 876.59 343.03 877.06 341.64 878.03 341.71 878.48 340.39 875.71 339.42 874.5 341.39 873.11 340.76 875.13 334.8 876.56 335.3 876.54 336.97 883.49 339.39 884.48 338.06 885.91 338.56 883.42 345.92 883.06 347.51 882.87 347.66 882.87 347.66"/>
  <path class="st0" d="M864.61,369.52l3.91.94-2.57-3.02-1.35,2.08h0ZM858.7,371.71l-1.18-.94,2.77-4.27,1.27.85-.34,1.37,1.63.38,1.96-3.01-1.08-1.26-1.06.82-1.27-.85,2.73-4.2,1.25.84-.18,1.22,5.09,6.98.91,1.11-1.74,2.68-1.38-.42-8.31-2-1.06.7h0Z"/>
  <path class="st0" d="M854.97,384.13c-.25.15-.53.38-.78.66-.84.93-.88,1.9-.18,2.55.65.61,1.43.49,2.19-.35l.84-.93-2.07-1.93h0ZM846.7,385.78l-1.03-1.13,2.21-2.44,1.34.57,3.74.79.05-.05c.18-.2.37-.38.62-.64l-1.99-1.86-1.13.56-1.04-1.13,3.5-3.87,1.12,1.04-.68,1.52,5.41,5.05,1.44-.82,1.11,1.04-4.01,4.42c-1.65,1.82-3.24,2.02-4.7.67-1-.93-1.33-2.23-1-3.56l-3.77-.74-1.19.58h0Z"/>
  <polygon class="st0" points="839.86 404.9 837.27 401.63 838.44 400.68 840.11 401.93 841.55 400.76 836.99 395 835.06 395.9 834.21 394.63 839.29 390.49 840.24 391.68 838.98 393.37 838.95 393.4 843.51 399.15 844.96 397.98 844.11 396.05 845.27 395.11 847.86 398.38 847.81 398.6 846.44 399.49 841.24 403.73 840.1 404.88 839.86 404.9 839.86 404.9"/>
  <path class="st0" d="M820.78,407.63c-1.07-1.86-.27-4.21,2.27-5.72.93-.55,2.07-.96,3.04-1.08l1.73,3.01-1.25.74-1.08-1.1c-.65.17-1.26.41-1.76.7-.94.56-1.34,1.31-.93,2.02.39.67,1.01.66,2.24.3,2.68-.78,4.11-.79,5.02.79,1.05,1.82.24,4.19-2.24,5.66-.78.46-1.81.85-2.65,1.01l-1.73-3.01,1.26-.75,1.07,1.07c.46-.13.89-.31,1.29-.54,1-.59,1.39-1.32,1-1.99-.37-.64-.95-.62-2.21-.25-2.69.77-4.11.79-5.07-.86h0Z"/>
  <path class="st0" d="M794.33,418.09c-.6-2.07.73-4.16,3.55-5,1.03-.31,2.24-.43,3.21-.31l.97,3.35-1.39.41-.79-1.33c-.67,0-1.32.09-1.88.25-1.04.31-1.61.95-1.37,1.74.22.74.83.89,2.1.83,2.79-.11,4.18.23,4.69,1.98.59,2.02-.75,4.13-3.51,4.95-.87.26-1.96.39-2.81.33l-.97-3.34,1.4-.42.79,1.3c.47-.02.93-.08,1.38-.21,1.11-.33,1.66-.95,1.44-1.69-.21-.71-.77-.83-2.09-.78-2.79.1-4.18-.23-4.71-2.07h0Z"/>
  <path class="st0" d="M776.6,419.71c.17-.65,1.18-2.37,3.74-2.74,3.15-.46,5.41,1.37,5.91,4.89.53,3.72-1.47,6.56-5.18,7.11-.99.14-2.05.11-2.78-.12l-.56-3.93,1.45-.21.76,1.82c.47.05.97.05,1.47-.02,1.96-.29,2.82-1.6,2.51-3.79-.36-2.49-1.75-3.62-3.91-3.3-1.41.21-2.04.87-2.49,1.48l-.15.02-.76-1.22h0Z"/>
  <polygon class="st0" points="764.62 420.34 762.98 419.84 763.1 418.3 768.72 418.24 768.73 419.77 767.17 420.31 767.26 427.77 768.83 428.26 768.85 429.8 763.1 429.87 763.2 428.33 764.71 427.8 764.62 420.34 764.62 420.34"/>
  <polygon class="st0" points="745.03 420.82 746.03 416.84 755.39 418.02 755.2 419.55 753.59 419.86 752.68 427.26 754.17 427.97 753.98 429.5 746.32 428.53 744.69 428.5 744.54 428.34 744.98 424.73 746.52 424.92 746.78 426.57 750.14 427 750.47 424.27 749.07 424.1 748.7 425.04 747.26 424.86 747.71 421.18 749.15 421.36 749.28 422.37 750.69 422.54 751.06 419.49 747.68 419.07 746.57 421.02 745.03 420.82 745.03 420.82"/>
  <polygon class="st0" points="723.11 421.29 724.41 421.14 727.07 412.02 729.29 412.68 729.63 413.96 731.65 420 732.23 421.88 732.27 421.86 732.66 420.3 733.86 416.2 732.27 415.18 732.82 413.74 738.1 415.33 737.67 416.8 736.03 416.85 733.94 424 735.3 424.95 734.87 426.42 730.46 425.1 730.14 423.83 728.52 418.84 727.94 416.96 727.9 416.96 727.51 418.54 726.56 421.78 727.76 422.68 727.33 424.16 722.56 422.73 723.11 421.29 723.11 421.29"/>
  <path class="st0" d="M709.64,406.43c.5-.45,2.28-1.3,4.61-.16,2.87,1.4,3.73,4.2,2.21,7.4-1.61,3.39-4.83,4.61-8.21,2.96-.9-.44-1.76-1.07-2.25-1.67l1.7-3.58,1.32.64-.38,1.94c.36.31.78.59,1.24.82,1.78.87,3.22.27,4.16-1.72,1.08-2.27.54-3.99-1.43-4.95-1.29-.63-2.18-.43-2.88-.18l-.14-.07.04-1.44h0Z"/>
  <polygon class="st0" points="693.48 398.54 696.16 395.47 703.95 400.85 703.1 402.12 701.52 401.65 697.38 407.82 698.39 409.14 697.53 410.41 691.15 406 689.72 405.22 689.65 405 691.67 401.99 692.95 402.88 692.44 404.47 695.24 406.4 696.76 404.13 695.6 403.33 694.84 403.99 693.64 403.17 695.7 400.1 696.9 400.93 696.57 401.89 697.73 402.69 699.44 400.15 696.62 398.21 694.76 399.43 693.48 398.54 693.48 398.54"/>
  <path class="st0" d="M675.66,379.11c-.05,1.42-.19,3-.37,4.37.82.19,1.55.21,2.08-.25.76-.67.59-1.89-.4-3.05-.43-.51-.85-.83-1.31-1.06h0ZM672.31,386.48c.41-.36.64-1.18.76-2.17-1.11-.22-1.82-.1-2.29.32-.55.49-.52,1.19-.07,1.71.49.57,1.09.59,1.61.14h0ZM671.94,374.49l1.51-1.08c.37.11.81.32,1.27.85.59.69.83,1.53.91,2.67.02.23.03.48.03.72,1.24.03,2.46.58,3.53,1.84,1.46,1.71,1.43,3.74.12,4.89-1.24,1.09-2.75.86-4.24.46l-.17.81c-.25,1.05-.61,1.82-1.22,2.35-1.34,1.18-3.31,1.26-4.9-.6-1.2-1.41-1.23-3.03.01-4.12,1.21-1.06,2.86-.82,4.39-.4.03-.62.04-1.27.06-1.9l.05-2.24c-.58.12-1.05.38-1.52.78l.35,1.07-1.12.98-2.98-3.5,1.2-.89,1.02.56c.91-.57,1.95-.62,2.97-.4-.12-1.06-.39-1.85-.99-2.56-.16-.18-.28-.3-.28-.3h0Z"/>
  <polygon class="st0" points="648.47 352.79 652.19 350.96 652.84 352.33 651.26 353.7 652.07 355.39 658.63 352.17 658.19 350.07 659.61 349.51 662.45 355.46 661.08 356.13 659.74 354.5 659.72 354.47 653.17 357.69 653.98 359.38 656.01 358.98 656.66 360.33 652.94 362.16 652.74 362.06 652.19 360.51 649.28 354.42 648.43 353.04 648.47 352.79 648.47 352.79"/>
  <polygon class="st0" points="649.27 332.16 653.26 331.47 656.02 340.61 654.57 341.06 653.62 339.7 646.59 341.88 646.56 343.55 645.11 344 642.85 336.5 642.22 334.98 642.3 334.78 645.73 333.71 646.18 335.22 644.8 336.13 645.8 339.42 648.38 338.61 647.97 337.24 646.97 337.28 646.55 335.88 650.05 334.79 650.47 336.2 649.62 336.73 650.03 338.1 652.93 337.2 651.93 333.9 649.72 333.67 649.27 332.16 649.27 332.16"/>
  <path class="st0" d="M648.13,314.23c.64.16,2.34,1.18,2.73,3.78.47,3.19-1.32,5.49-4.79,6.02-3.67.56-6.48-1.46-7.03-5.22-.15-1.01-.12-2.08.1-2.83l3.87-.59.22,1.47-1.79.78c-.05.48-.04.98.03,1.5.29,1.98,1.59,2.85,3.75,2.52,2.46-.37,3.56-1.8,3.23-3.98-.21-1.43-.87-2.07-1.47-2.52l-.02-.15,1.19-.78h0Z"/>
  <polygon class="st0" points="647.52 294.99 648.05 293.34 649.56 293.5 649.49 299.11 647.98 299.09 647.48 297.58 644.68 297.55 644.62 302.16 647.43 302.19 647.96 300.68 649.47 300.7 649.4 306.39 647.89 306.38 647.4 304.78 640.05 304.69 639.52 306.27 638 306.25 638.07 300.56 639.58 300.57 640.08 302.1 642.56 302.13 642.62 297.52 640.13 297.49 639.6 298.99 638.09 298.97 638.16 293.22 639.67 293.36 640.16 294.9 647.52 294.99 647.52 294.99"/>
  <polygon class="st0" points="642.98 271.38 643.25 272.68 652.46 274.47 652.03 276.77 650.81 277.24 645.08 279.88 643.29 280.65 643.32 280.69 644.89 280.93 649.03 281.73 649.87 280.03 651.34 280.44 650.3 285.93 648.82 285.64 648.61 283.99 641.39 282.59 640.59 284.05 639.1 283.76 639.96 279.18 641.18 278.73 645.91 276.61 647.7 275.83 647.69 275.79 646.11 275.56 642.83 274.92 642.07 276.22 640.58 275.93 641.51 270.98 642.98 271.38 642.98 271.38"/>
  <path class="st0" d="M652.59,255.67c-2.22-.84-3.85-.17-4.55,1.74-.72,1.94.31,3.29,2.21,4.01,2.22.84,3.84.19,4.55-1.74.72-1.94-.31-3.29-2.21-4.01h0ZM649.77,263.93c-3.52-1.34-5.01-4.45-3.78-7.78,1.13-3.07,3.83-4.21,7.06-2.98,3.52,1.34,5.02,4.43,3.79,7.76-1.14,3.09-3.83,4.22-7.07,2.99h0Z"/>
  <polygon class="st0" points="663.04 238.08 666.31 240.54 662.03 248.24 660.71 247.49 661.03 245.85 654.63 242.19 653.41 243.32 652.09 242.57 655.12 237.11 656.39 237.97 655.88 239.94 662.23 243.56 663.56 241.15 662.27 239.47 663.04 238.08 663.04 238.08"/>
  <path class="st0" d="M671.66,223.26c-1.86-1.48-3.61-1.34-4.85.26-1.26,1.63-.69,3.23.91,4.5,1.86,1.48,3.6,1.36,4.85-.26,1.26-1.63.69-3.23-.91-4.5h0ZM666.51,230.26c-2.96-2.36-3.44-5.78-1.28-8.57,2-2.58,4.9-2.83,7.62-.67,2.96,2.36,3.46,5.76,1.29,8.56-2.01,2.59-4.91,2.85-7.63.68h0Z"/>
  <path class="st0" d="M687.95,208.34l-.36.83,1.85,2.05c-.14,1.23-.92,2.84-2.26,4.09-2.64,2.45-5.46,2.08-7.85-.57-2.56-2.84-2.27-6.27.79-9.12.77-.71,1.77-1.39,2.52-1.63l2.54,2.81-1.14,1.06-1.5-.97c-.48.26-.93.58-1.34.97-1.66,1.54-1.83,3.27-.36,4.89,1.63,1.81,3.47,2,5.06.52.49-.46.8-.86.98-1.26l-.99-1.09-.03.02-1.4.65-.93-1.03,3.49-3.24.93,1.03h0Z"/>
  <polygon class="st0" points="699.57 199.64 700.91 201.69 702.91 200.96 703.65 202.31 698.23 205.96 697.39 204.67 698.8 203.11 697.46 201.07 692.14 198.62 690.88 198.85 690.05 197.58 694.32 194.71 695.16 195.99 694.48 196.94 697.8 198.46 697.31 195.03 696.18 195.3 695.34 194.02 699.34 191.33 700.05 192.67 699.41 193.72 699.57 199.64 699.57 199.64"/>
  <path class="st0" d="M841.93,294.04s.05.04.07.06c.03.03.06.05.09.08.06.06.12.12.19.18.06.06.11.12.16.18.03.03.05.06.08.09,0,0,0,0,0,0,0,0,0,0,0,0t0,0s0,.01.01.01c.01.02.03.04.04.06.11.15.22.31.31.48.1.18.2.36.29.55.02.05.04.09.06.14,0,.01.01.03.02.04v.02s-.05.02-.05.02h.07s0,0,0,0c.05.11.09.22.13.32.04.11.08.22.11.33-.18.04-.36.09-.54.13-.12.02-.23.04-.34.06-.05,0-.1.02-.14.02,0,0,0,0-.01,0v-.07s-.01.07-.01.07c-.01,0-.03,0-.03,0-.04,0-.08.01-.12.01-.34.04-.68.07-1.03.08,0-.88-.02-1.75-.03-2.63,0-.2,0-.39,0-.58.07.02.13.04.19.06.01,0,.03.01.04.02,0,0,0,0-.01,0-.01,0-.01,0-.01,0,0,0,.05.02.05.02,0,0,0,0-.01,0,0,0,0,0,0,0,.03.02.07.03.1.05.12.06.24.13.35.21h0ZM843.07,294c.09.03.19.07.28.1.05.02.09.03.14.05,0,0,.01,0,.02,0,.01,0,.02.01.02.01,0,0,0,0,0,0,.02,0,.04.02.06.03.38.16.73.36,1.08.58.08.05.16.11.24.17.04.03.08.06.11.09h.01s0,0,0,0c.03.02.05.04.08.06.16.13.31.26.46.4.07.06.13.13.19.2-.26.15-.52.3-.79.42h0s0,0,0,0c0,0,0,0,0,0,0,0,0,0,0,0,0,0-.02.01-.02.01,0,0,0,0,.02-.01,0,0-.01,0-.02,0-.02.01-.05.02-.08.03-.05.02-.11.04-.16.06-.11.05-.23.09-.35.13-.06.02-.13.04-.2.06-.18-.54-.4-1.08-.69-1.57-.19-.32-.42-.64-.68-.93.09.02.18.05.28.07h0ZM846.22,296.22s.02.03.02.03c0,0,0,0,0,0h0s.03.03.04.05c.04.06.08.11.12.17.28.39.52.82.72,1.26,0,0,.02.04.02.05.01.03.02.05.03.08.02.05.04.1.06.16.04.12.08.23.12.35.07.23.13.46.18.69.03.11.04.22.06.34,0,.02,0,.04,0,.05,0,0,0,.05,0,.06,0,.06.01.12.02.17.01.12.01.24.02.36h-.53s-2.24.03-2.24.03h-.12c-.03-.9-.14-1.8-.34-2.68-.02-.11-.05-.21-.08-.31.65-.21,1.28-.5,1.86-.86h0ZM847.65,301.11c0,.06-.01.12-.02.17h0s0,0,0,0v.04s0,0,0-.02c0,0,0,.01,0,.02,0,.03,0,.06-.01.09-.02.12-.04.24-.06.37-.05.23-.1.46-.17.69-.03.11-.07.21-.1.32-.02.05-.04.11-.06.16,0,.03-.02.05-.03.08,0,0,0,0,0,0,0,.01,0,.02,0,.02,0,0,0,.02-.01.03-.19.46-.43.89-.7,1.29-.03.05-.07.1-.1.15,0,0-.03.04-.03.05,0,.01-.02.02-.02.03-.59-.35-1.22-.62-1.87-.81.24-.98.34-2,.35-3.01h1.21s1.67-.04,1.67-.04c0,.13,0,.26-.01.39h0ZM845.66,305.32c-.14.15-.3.28-.45.41-.02.01-.03.03-.05.04,0,0,0,0,0,0l-.03.03s0,0,0,0c-.04.03-.08.06-.11.09-.09.06-.17.13-.26.19-.34.23-.7.43-1.07.61,0,0,0,0-.01,0-.02.01-.03.01-.03.01,0,0,0,0,0,0-.01,0-.03.01-.04.02-.05.02-.09.04-.14.06-.1.04-.2.08-.3.11-.07.03-.15.04-.22.07.52-.59.87-1.3,1.14-2.03.06-.16.11-.32.16-.49.09.03.18.05.28.08.11.04.22.07.32.11.05.02.1.04.16.06,0,0,.03.01.04.02,0,0,0,0,0,0h0s.03.01.05.02c.26.11.51.24.75.38-.07.07-.13.15-.21.22h0ZM841.33,300.11v-1.15s-.03-1.35-.03-1.35c.81-.03,1.62-.15,2.41-.35.08.32.15.65.21.98.02.08.03.17.04.26,0,.03,0,.06.01.1,0,0,0,0,0,.01,0,.03,0,.06.01.09.03.19.05.38.06.57.02.27.04.54.05.8l-2.21.03h-.57ZM843.25,300.77h.86c0,.38-.02.76-.05,1.15-.01.11-.02.21-.03.32,0,0,0,.05,0,.06v.09c-.02.07-.03.13-.04.2-.03.23-.08.46-.12.69-.02.1-.05.21-.07.31-.79-.18-1.6-.27-2.41-.29l-.03-2.5,1.91-.02h0ZM842.67,306.23s0,0,0,.01c0,0,0,0-.02.02,0,0,0-.01.01-.02-.02.03-.04.06-.07.08-.15.19-.31.36-.49.51t0,0s0,0,0,0c0,0,0,0-.01,0-.02.02-.05.03-.07.05-.04.03-.09.06-.13.09-.05.03-.09.05-.14.08-.02.01-.04.02-.06.03,0,0,0,0,0,0,0,0,.01,0,.01,0,0,0-.02,0-.03.01,0,0-.02,0-.02,0,0,0,0,0,.01,0-.07.03-.15.05-.23.08,0-.63-.01-1.25-.02-1.88,0-.45-.01-.89-.02-1.34.39,0,.78.03,1.17.07,0,0,.05,0,.06,0,.03,0,.06,0,.09.01.06,0,.12.02.17.02.11.02.23.04.34.06.13.03.26.06.4.09-.04.12-.07.24-.11.36-.04.1-.07.2-.11.3,0,0-.01.03-.02.04,0,0,0-.02.01-.03,0,.02-.01.03-.01.03,0,.01-.01.03-.02.04-.02.06-.05.11-.07.17-.08.19-.18.37-.27.55-.07.12-.14.24-.22.36-.04.06-.07.11-.11.16h0ZM839.44,296.87s-.05,0-.06,0c-.03,0-.06,0-.09-.01-.06,0-.12-.02-.17-.02-.12-.02-.23-.04-.34-.06-.13-.02-.26-.06-.4-.09.05-.16.1-.32.16-.48.02-.05.04-.1.06-.15,0-.02.01-.04.02-.05,0,0,0,.01,0,.01,0,0,.02-.04.02-.05.04-.1.09-.21.13-.3.09-.18.18-.36.28-.54.05-.08.1-.16.15-.23.02-.04.05-.08.07-.11.01-.02.03-.04.04-.05,0-.01.03-.04.04-.05.1-.13.2-.25.31-.36.05-.05.1-.1.16-.15.02-.02.05-.04.07-.06,0,0-.01,0-.01,0,0,0,.04-.03.04-.03,0,0,0,0-.01.01.01,0,.02-.02.03-.02.11-.09.24-.16.36-.23.01,0,.04-.02.05-.02-.01,0-.03.01-.04.01.03-.01.05-.02.05-.02,0,0,0,0-.01,0,.02,0,.04-.02.05-.02.06-.02.12-.04.18-.06,0,.62.01,1.25.02,1.87,0,.45.01.9.02,1.35-.4,0-.79-.03-1.18-.07h0ZM840.66,300.12l-1.93.02h-.86c0-.42.02-.85.07-1.28,0-.06.01-.12.02-.18,0-.01,0-.02,0-.03h0s0-.06.01-.09c.02-.13.03-.25.05-.38.03-.23.08-.46.13-.69.01-.06.03-.12.05-.18.79.18,1.61.27,2.43.29l.03,2.5h0ZM840.68,301.95l.02,1.36c-.82.03-1.63.14-2.42.35-.03-.13-.07-.26-.1-.39-.05-.23-.1-.46-.14-.69,0-.06-.02-.12-.03-.17,0-.02,0-.04,0-.06h0s0-.04,0-.05c-.02-.13-.03-.25-.05-.38-.04-.36-.06-.71-.07-1.07l2.21-.03h.58s.01,1.13.01,1.13h0ZM840.73,306.62c0,.2,0,.39,0,.59-.01,0-.02,0-.04,0-.07-.02-.13-.04-.19-.06,0,0,0,0,0,0h0s0,0,0,0c0,0,0,0-.02,0,0,0,0,0,.01,0,0,0-.01,0-.05-.02.01,0,.02,0,.04.01,0,0-.01,0-.02,0-.04-.02-.07-.03-.11-.05-.06-.03-.12-.07-.18-.11-.03-.02-.06-.04-.09-.06-.02,0-.03-.02-.04-.03,0,0,0,0,0,0,0,0,0,0,0,0,0,0-.02-.01-.02-.01h.02c-.13-.09-.25-.2-.36-.32-.06-.06-.11-.12-.17-.19-.01-.01-.06-.07-.06-.08h0s-.05-.07-.07-.1c-.11-.16-.22-.32-.31-.49-.1-.18-.2-.36-.29-.55-.02-.05-.04-.1-.06-.14,0,0,0,0,0-.01h0s-.02-.05-.03-.07c-.04-.11-.09-.22-.13-.33-.04-.09-.06-.19-.09-.28.18-.05.36-.09.54-.13.11-.02.23-.04.34-.06.05,0,.1-.01.14-.02,0,0,.05,0,.06,0,.04,0,.08-.01.12-.02.35-.04.69-.07,1.04-.08.01.88.02,1.75.03,2.63h0ZM838.93,306.92c-.09-.03-.19-.06-.28-.1-.05-.02-.09-.04-.14-.05,0,0-.02,0-.03-.01,0,0,0,0-.01,0v-.06s0,0,0,0l-.02.05s-.04-.01-.04-.01c-.19-.08-.37-.17-.56-.27-.18-.1-.35-.2-.53-.31-.08-.05-.16-.11-.24-.17-.04-.03-.08-.06-.12-.09h0s0,0,0,0c0,0,0,0,0,0h0s0,0,0,0c0,0,0,0,0,0-.02-.02-.05-.04-.07-.05-.23-.18-.45-.39-.65-.6.26-.15.52-.3.79-.42,0,0,0,0,0,0h.03s0-.01-.03,0c0,0,.01,0,.02,0,.02-.01.05-.02.08-.03.05-.02.1-.04.16-.06.11-.05.23-.09.35-.13.07-.02.13-.04.19-.06,0,.02.01.05.02.07.28.82.66,1.61,1.21,2.27.04.05.08.09.13.14-.08-.02-.16-.04-.24-.07h0ZM835.74,304.67s-.03-.04-.04-.05c-.04-.05-.08-.11-.12-.16-.14-.21-.28-.41-.4-.63-.12-.21-.22-.42-.32-.64,0,0,0,0,0,0,0,0,0-.01,0-.02-.01-.03-.02-.05-.03-.08-.02-.05-.04-.1-.06-.16-.04-.11-.08-.23-.12-.35-.07-.23-.13-.46-.18-.68-.02-.11-.05-.23-.07-.34,0-.03,0-.06-.01-.09,0,0,0,0,0,0,0,0,0-.01,0-.02h0s0,0,0,0c0-.07-.02-.13-.02-.2-.01-.12-.01-.24-.02-.36h.52s2.24-.04,2.24-.04h.12c.01.3.03.59.05.89.07.71.19,1.42.37,2.1-.65.21-1.28.5-1.86.86,0,0-.01-.02-.02-.03h0ZM834.33,299.78s0-.09.01-.14c0,0,0-.05,0-.06,0-.03,0-.06.01-.09.02-.12.04-.24.06-.37.05-.23.1-.46.17-.69.04-.11.07-.21.11-.32.02-.05.04-.11.06-.16,0-.02.01-.04.02-.05,0,0,0,0,0-.02l.06.04-.06-.04s.02-.05.02-.06c.09-.23.2-.44.32-.66.12-.22.26-.44.4-.65.04-.05.07-.1.11-.15,0,0,0,0,0,0,0,0,0,0,0,0l.02-.03s0,0-.01.02c0,0,0-.01.01-.02h0c.59.34,1.23.61,1.88.81-.12.51-.21,1.02-.27,1.54-.06.48-.09.97-.09,1.46h-1.21s-1.67.04-1.67.04c0-.14,0-.28.02-.42h0ZM836.81,295.16s.02-.02.03-.03c0,0,0,0-.02.01.02-.01.02-.02.02-.02,0,0,0,0,0,0,0-.01.02-.02.03-.03.04-.03.08-.06.12-.09.08-.06.17-.12.26-.18.17-.12.34-.22.52-.32.18-.1.36-.19.55-.28,0,0,0,0,0,0-.01,0-.02,0-.02,0l.04-.02s0,0-.01,0l.06-.03s.09-.04.14-.06c.1-.04.2-.08.31-.11.06-.03.13-.04.2-.06-.5.56-.85,1.24-1.12,1.94-.07.19-.14.39-.2.59-.09-.03-.19-.05-.28-.08-.11-.04-.22-.08-.32-.11-.05-.02-.1-.04-.16-.06,0,0-.02,0-.03-.01,0,0-.02,0-.02,0h0s-.03-.01-.05-.02c-.26-.11-.51-.24-.75-.38.22-.24.45-.46.69-.66h0ZM840.9,292.99c-1.51.02-3.01.52-4.22,1.41-.48.35-.91.77-1.29,1.23-.04.03-.07.06-.09.1,0,0,0,.01,0,.02-.77.96-1.31,2.11-1.53,3.34-.09.48-.12.96-.12,1.43,0,0,0,.01,0,.02,0,0,0,0,0,.01.02,1.5.49,2.99,1.36,4.23.13.19.28.38.44.55.02.02.03.04.06.06.98,1.12,2.28,1.93,3.72,2.3.6.15,1.22.23,1.83.22.02,0,.03,0,.05,0h.02s.01,0,.02,0c0,0-.01,0-.02,0,.03,0,.07,0,.1,0,1.08-.03,2.15-.3,3.12-.79.89-.45,1.66-1.08,2.29-1.85.04-.03.07-.06.09-.1,0,0,0-.01,0-.02.49-.61.89-1.29,1.17-2.03.34-.87.49-1.82.49-2.76,0,.08-.03.15-.08.21,0,0,0,0,0,0,.04-.06.07-.13.07-.2,0-.08-.03-.15-.08-.2h0c.05.05.08.12.08.2-.02-1.76-.67-3.46-1.79-4.79-.02-.02-.04-.05-.06-.06-.13-.15-.26-.29-.39-.43-1.24-1.22-2.87-1.94-4.58-2.08-.21-.02-.42-.02-.62-.02h0Z"/>
  <path class="st0" d="M681.56,304.99s.08,0,.11,0c.45,0,.81-.42.73-.88-.06-.32-.3-.58-.62-.62-.04,0-.08,0-.11,0-.45,0-.81.42-.73.89.06.32.3.56.62.61h0Z"/>
  <path class="st0" d="M692.93,268.64c-1.86,4.19-3.38,8.6-4.51,13.1-.59,2.33-1.07,4.71-1.45,7.08-.13.84-.23,1.72-.34,2.59.4-.05.81-.08,1.23-.09.68,0,1.34.05,1.99.17.09-.72.18-1.45.28-2.15.36-2.26.83-4.55,1.39-6.79,1.08-4.31,2.54-8.54,4.33-12.57l.22-.5-2.92-1.33-.22.5h0Z"/>
  <path class="st0" d="M690.08,313.27c-.63.12-1.28.2-1.95.21-.43,0-.85-.02-1.27-.07,1.16,7.78,3.46,15.35,6.85,22.52l.24.5,2.89-1.41-.24-.5c-3.2-6.77-5.38-13.92-6.51-21.26h0Z"/>
  <path class="st0" d="M688.31,303.74c.76,0,1.39-.66,1.38-1.43-.01-.77-.65-1.41-1.41-1.4-.76,0-1.39.66-1.38,1.43,0,.77.65,1.41,1.41,1.4h0Z"/>
  <path class="st0" d="M686.03,307.26c.74-.2,1.52-.49,2.31-.86.8.35,1.59.62,2.33.8-.56,1.72-1.38,2.85-2.29,2.86-.93.01-1.78-1.09-2.36-2.8h0ZM685.46,304.85c.34.24.69.46,1.07.67.37.2.75.4,1.12.59-.61.25-1.22.47-1.79.63-.16-.58-.29-1.22-.4-1.88h0ZM685.38,304.08c-.04-.57-.09-1.15-.1-1.73,0-.6,0-1.17.05-1.74.44-.33.92-.63,1.42-.94.5-.29,1-.58,1.5-.81.5.22,1.01.48,1.51.77.51.3.99.61,1.44.93.06.57.11,1.15.1,1.71,0,.6,0,1.17-.05,1.74-.44.33-.92.63-1.42.94-.5.29-1,.58-1.5.81-.5-.22-1.01-.48-1.51-.77-.5-.28-.99-.59-1.44-.91h0ZM685.75,297.98c.6.14,1.19.34,1.81.58-.37.19-.74.4-1.11.62-.35.23-.72.46-1.05.69.08-.68.19-1.3.35-1.89h0ZM690.72,297.94c.16.58.29,1.21.39,1.88-.34-.24-.69-.45-1.07-.67-.38-.2-.75-.41-1.12-.59.61-.27,1.22-.47,1.8-.63h0ZM691.94,297.68c.32-.04.61-.06.87-.07,1.01-.01,1.73.24,2.04.77.38.65.09,1.73-.78,2.93-.13.17-.27.36-.42.53-.55-.54-1.18-1.08-1.9-1.6-.1-.88-.26-1.71-.48-2.45.22-.06.45-.1.67-.12h0ZM691.84,303.56c.01-.41.03-.85.02-1.28,0-.43-.03-.87-.05-1.28.54.41,1.03.84,1.45,1.26-.42.44-.88.88-1.42,1.3h0ZM690.84,306.65c-.58-.14-1.19-.34-1.81-.58.37-.19.74-.4,1.11-.62.35-.23.72-.46,1.05-.69-.08.68-.21,1.32-.35,1.89h0ZM684.79,300.33c-.7.52-1.33,1.07-1.86,1.65-.15-.17-.3-.35-.43-.52-.92-1.2-1.23-2.25-.85-2.91.29-.51,1.01-.81,2.02-.82.28,0,.56.01.88.04.22.02.45.05.67.1-.2.74-.33,1.57-.42,2.46h0ZM684.76,303.65c-.53-.41-1.01-.83-1.45-1.26.42-.44.9-.88,1.42-1.3-.01.42-.03.85-.02,1.28,0,.43.03.87.05,1.28h0ZM691.26,307.33c.24.06.48.09.73.12-.02-.06-.02-.13-.02-.21,0-.13.02-.25.05-.36-.19-.04-.39-.07-.6-.11.2-.74.34-1.57.42-2.46.68-.52,1.31-1.07,1.84-1.64,1.19,1.34,1.74,2.62,1.28,3.44-.13.21-.31.38-.55.52.07.17.13.36.14.56.39-.19.7-.46.88-.8.58-1.04-.01-2.58-1.41-4.13.18-.21.35-.42.51-.61,1.04-1.43,1.32-2.68.81-3.55-.41-.71-1.29-1.07-2.52-1.05-.3,0-.61.03-.95.08-.24.04-.5.08-.76.14-.08-.21-.15-.41-.23-.6-.15.11-.31.21-.5.27.06.15.12.32.17.47-.74.2-1.54.49-2.32.86-.8-.35-1.59-.62-2.33-.8.54-1.72,1.38-2.85,2.29-2.86.15,0,.32.03.47.09.11-.15.24-.3.4-.42-.28-.17-.58-.24-.88-.24-1.19.02-2.21,1.29-2.82,3.3-.26-.05-.52-.09-.76-.12-.34-.04-.66-.06-.95-.05-1.23.02-2.1.4-2.49,1.11-.49.89-.18,2.14.9,3.54.15.21.32.39.51.6-.18.23-.35.44-.51.67.02.06.02.07.04.13.13.05.26.13.37.24.04-.04.05-.06.07-.1.13-.17.28-.36.42-.54.57.56,1.19,1.1,1.9,1.6.1.89.26,1.71.48,2.45-.22.04-.44.08-.67.12-.31.04-.6.07-.87.07-1.01.01-1.74-.25-2.04-.77-.15-.24-.19-.56-.16-.9-.21,0-.39-.07-.54-.18-.09.51-.03.98.2,1.37.42.69,1.29,1.06,2.52,1.04.3,0,.61-.03.95-.07.24-.04.5-.08.76-.14.68,1.99,1.71,3.24,2.9,3.23,1.19-.01,2.2-1.29,2.86-3.3h0Z"/>
  <path class="st0" d="M693.22,306.27c-.57,0-1,.52-.9,1.1.06.39.38.71.77.76.05,0,.1,0,.14,0,.57,0,1-.52.9-1.1-.04-.38-.38-.71-.77-.76-.05,0-.1,0-.14,0h0Z"/>
  <path class="st0" d="M688.85,295.76c.1.42.44.75.85.84.09.02.18.03.26.03.7,0,1.23-.66,1.06-1.4-.1-.41-.44-.75-.85-.84-.09-.02-.18-.03-.26-.03-.7,0-1.23.67-1.06,1.4h0Z"/>
  <polygon class="st0" points="825.52 350.92 826.48 352.95 824.24 355.55 821.96 353.52 822.89 352.44 823.79 352.9 824.74 351.79 821.99 349.34 821.03 350.45 821.59 351.29 820.66 352.37 818.62 350.56 820.86 347.97 822.35 348.68 823.37 347.5 819.51 346.48 814.41 352.39 815.55 353.4 816.97 352.54 822.51 357.47 821.86 359.01 823.01 360.02 829.23 352.82 826.54 349.74 825.52 350.92 825.52 350.92"/>
  <polygon class="st0" points="718.58 355.59 717.31 354.56 711.78 349.07 710.72 350.17 711.48 351.65 706.33 356.99 704.85 356.25 703.79 357.35 710.54 364.05 713.71 361.49 712.61 360.39 710.56 361.26 708.12 358.84 710.24 356.64 711.25 357.65 710.76 358.53 711.79 359.56 714.36 356.9 713.32 355.87 712.46 356.4 711.44 355.39 713.34 353.43 715.77 355.84 714.99 357.31 716.1 358.41 718.61 355.8 718.58 355.59 718.58 355.59"/>
  <polygon class="st0" points="729.7 363.69 724.06 360.06 722.78 359.04 722.56 359.06 720.35 362.61 721.6 363.42 723.12 361.98 724.69 362.99 720.79 369.24 720.76 369.22 718.77 368.56 717.96 369.86 723.47 373.4 724.39 372.17 722.92 370.61 726.82 364.36 728.39 365.37 727.76 367.38 729.03 368.19 731.25 364.64 731.15 364.42 729.7 363.69 729.7 363.69"/>
  <polygon class="st0" points="748.06 380.69 745.41 380.05 747.1 372.85 749.1 372.81 749.57 371.34 743.55 369.88 743.2 371.38 744.61 372.25 742.9 379.52 741.26 379.65 740.91 381.15 749.4 383.2 750.83 379.34 749.31 378.97 748.06 380.69 748.06 380.69"/>
  <path class="st0" d="M797.05,375.41c-1.85.83-3.45.12-4.42-2.08-.82-1.88-.59-3.57,1.28-4.42,1.84-.83,3.45-.11,4.41,2.08.82,1.88.59,3.57-1.28,4.41h0ZM793.37,366.55c-3.21,1.44-4.36,4.7-2.84,8.2,1.4,3.21,4.09,4.37,7.07,3.03,3.21-1.44,4.35-4.69,2.82-8.19-1.4-3.21-4.09-4.36-7.05-3.03h0Z"/>
  <path class="st0" d="M809.58,363.07c-.3.23-.62.4-.89.5l-1.68-2.29,1-.75c.9-.68,1.69-.65,2.22.07.57.78.35,1.72-.65,2.47h0ZM815.84,363.87l-3.57-1.45c.57-1.25.49-2.58-.33-3.7-1.18-1.61-2.78-1.72-4.74-.24l-4.76,3.58.9,1.24,1.57-.53,4.39,6-.95,1.37.9,1.23,4.16-3.13-.81-1.31-1.22.34-1.61-2.21c.3-.2.51-.34.73-.51l.05-.04,3.53,1.49,1.21.81,2.63-1.98-.81-1.31-1.28.34h0Z"/>
  <path class="st0" d="M780.48,380.97c-.5.1-.88.14-1.26.13l-.55-2.83,1.34-.27c1.22-.24,1.99.13,2.17,1.06.19.97-.39,1.65-1.7,1.91h0ZM777.79,373.79l1.15-.23c1.09-.22,1.69.1,1.84.88.17.88-.38,1.51-1.54,1.74l-.95.19-.5-2.58h0ZM781.93,376.3c1.08-.71,1.47-1.74,1.23-2.94-.34-1.71-1.66-2.36-4.05-1.88l-5.75,1.16.29,1.51,1.64.2,1.43,7.33-1.44.82.3,1.51,5.05-1.02c2.86-.57,4.43-2.43,4-4.63-.26-1.34-1.2-2.07-2.69-2.05h0Z"/>
  <path class="st0" d="M761.33,379.19l1.17-3.81,1.28,3.87-2.45-.06h0ZM764.87,374.42l-.37-1.41-3.17-.08-.45,1.37-3.15,8.08-1.12.49-.04,1.52,4.96.13.04-1.54-1.25-.48.48-1.6,3.56.09.54,1.61-1.32.43-.04,1.54,5.04.13.16-1.52-1.15-.55-2.73-8.22h0Z"/>
  <path class="st0" d="M713.84,245.17c1.13-.62,1.74-.76,2.25-.19.55.61.32,1.43-.49,2.18-.43.4-.97.76-1.58,1.07l-1.29-.84-1.07.99,2.32,2.58c.93-.32,1.96-.97,2.76-1.71,2.18-2.01,2.47-4.49,1.03-6.08-1.27-1.42-2.67-1.09-5.14.24-1.16.63-1.72.77-2.22.22-.52-.57-.29-1.37.57-2.16.34-.32.73-.58,1.15-.8l1.27.82,1.08-1-2.32-2.58c-.79.33-1.72.93-2.39,1.55-2.13,1.97-2.42,4.47-1.02,6.02,1.22,1.35,2.62,1.04,5.08-.3h0Z"/>
  <polygon class="st0" points="734.87 226.24 737.51 233.21 736.23 234.26 736.77 235.7 742.02 233.66 741.61 232.17 739.9 232.28 737.26 225.31 738.49 224.27 738.06 222.79 732.68 224.89 733.22 226.32 734.87 226.24 734.87 226.24"/>
  <path class="st0" d="M728.9,240.06c2.22-1.35,2.49-3.34,2.4-4.01l-1.17-.82-.13.08c-.18.74-.5,1.6-1.73,2.35-1.87,1.14-3.59.66-4.87-1.5-1.13-1.89-.83-3.45.86-4.48.44-.27.9-.47,1.35-.61l1.4,1.38,1.26-.77-2.02-3.41c-.77.09-1.75.47-2.62.99-3.21,1.96-3.97,5.38-2.05,8.6,1.81,3.05,4.6,3.85,7.33,2.18h0Z"/>
  <polygon class="st0" points="798.83 237.07 797.58 235.88 800.8 229.16 802.39 229.37 803.16 228.04 797.98 225.48 797.32 226.87 798.5 228.03 795.29 234.75 793.65 234.52 792.99 235.9 798.05 238.4 798.83 237.07 798.83 237.07"/>
  <polygon class="st0" points="782.81 230.22 780.71 230.17 780.31 231.65 786.6 233.42 787.12 231.97 785.27 230.91 787.22 223.78 789.01 224.28 788.98 226.39 790.43 226.8 791.53 222.75 791.37 222.56 789.78 222.29 783.34 220.48 781.83 219.88 781.63 219.96 780.52 224.01 781.95 224.41 783 222.59 784.79 223.1 782.84 230.23 782.81 230.22 782.81 230.22"/>
  <polygon class="st0" points="746.57 222.42 747.93 229.76 746.48 230.57 746.76 232.08 756.04 230.31 755.81 226.21 754.28 226.5 753.8 228.7 750.45 229.34 749.9 226.31 751.28 226.05 751.72 226.97 753.14 226.7 752.46 223.04 751.04 223.31 750.97 224.33 749.58 224.59 749.08 221.89 752.41 221.26 753.16 222.75 754.68 222.46 754.02 218.88 753.82 218.77 752.26 219.25 744.66 220.69 744.94 222.21 746.57 222.42 746.57 222.42"/>
  <polygon class="st0" points="766.96 228.42 765.17 227.83 765.36 223.54 765.36 221.93 765.4 221.9 766.41 223.59 769.82 228.96 770.45 230.12 772.77 230.22 773.18 220.7 774.4 220.24 774.59 218.71 769.62 218.49 769.55 220.02 770.93 220.6 770.78 223.99 770.78 225.62 770.75 225.63 769.73 223.94 766.96 219.49 766.35 218.34 761.75 218.14 761.68 219.68 763.23 220.27 762.91 227.73 761.32 228.18 761.26 229.71 766.77 229.96 766.96 228.42 766.96 228.42"/>
  <path class="st0" d="M812.16,236.73l-1.17,3.91-1.96-1.5,3.13-2.41h0ZM802.18,240.59l3.96,3.02.91-1.23-.74-1.13,1.31-1.02,2.85,2.17-.48,1.62-1.32-.43-.91,1.23,4.03,3.08,1-1.14-.62-1.12,2.48-8.3.5-1.37-2.53-1.93-1.15.85-7.19,4.73-1.19-.26-.9,1.22h0Z"/>
  <path class="st0" d="M802.55,275.99h0c.87-.05,1.54-.82,1.5-1.7-.04-.62-.38-6.17-1.28-8.69-.14-.41-.43-.73-.82-.91-.39-.18-.82-.2-1.22-.06-.4.15-.72.44-.9.83-.18.39-.2.83-.06,1.23.56,1.58.97,5.62,1.09,7.79.05.86.75,1.53,1.68,1.52h0Z"/>
  <path class="st0" d="M810.53,261.27c.09,0,.17,0,.25-.02.42-.07.79-.3,1.03-.66.25-.35.34-.78.27-1.2l-.51-3.04-3.89-3.97,1.26,7.54c.13.79.8,1.35,1.58,1.34h0Z"/>
  <path class="st0" d="M796.28,282.39h.17c.81,0,1.49-.63,1.57-1.46.05-.54.46-5.37,0-9.37-.05-.43-.26-.81-.59-1.08-.33-.27-.74-.39-1.17-.34-.42.05-.8.26-1.07.6-.26.34-.38.76-.33,1.19.43,3.84-.01,8.66-.02,8.71-.08.88.56,1.67,1.43,1.76h0Z"/>
  <path class="st0" d="M805.78,259.84c-.41.1-.77.35-.99.71-.22.36-.3.8-.2,1.22.8,3.5.93,6.35.94,6.67h0c.03.88.75,1.58,1.63,1.57h0c.87-.02,1.56-.77,1.54-1.66-.01-.34-.14-3.42-1.02-7.3-.2-.86-1.06-1.41-1.91-1.21h0Z"/>
  <path class="st0" d="M820.75,292.82c.42-.02.81-.22,1.1-.54.28-.32.42-.73.4-1.17-.05-.9-.82-1.59-1.68-1.51-3.35.21-12.32-1.88-12.71-1.97-.85-.2-1.71.34-1.91,1.2-.2.87.33,1.74,1.19,1.94.37.09,8.99,2.12,13.13,2.07.17,0,.33,0,.48-.02h0Z"/>
  <path class="st0" d="M817.52,298.47c.81,0,1.48-.64,1.56-1.46.08-.88-.56-1.67-1.43-1.76-6.87-.67-13.09-4.14-13.15-4.18-.37-.21-.8-.26-1.21-.14-.41.12-.74.39-.95.77-.21.38-.26.81-.14,1.23.12.41.39.76.76.97.3.17,6.84,3.83,14.39,4.57h.17Z"/>
  <path class="st0" d="M796.1,314.05c.49,0,.96-.25,1.26-.65.25-.35.36-.77.29-1.2-.06-.43-.29-.8-.63-1.06-6.32-4.73-9.12-10.79-9.23-11.05-.36-.81-1.3-1.17-2.1-.81-.39.18-.69.49-.84.9-.15.4-.14.84.03,1.23.12.28,3.11,6.98,10.25,12.32.28.21.61.32.96.32h0Z"/>
  <path class="st0" d="M791.38,272.77c-.34-.25-.77-.36-1.18-.29-.87.14-1.46.96-1.33,1.84.75,4.91-.74,8.6-.8,8.75-.36.81,0,1.76.81,2.12.21.1.43.14.66.14.62,0,1.18-.38,1.43-.96.08-.18,1.95-4.52,1.03-10.54-.06-.43-.29-.8-.63-1.06h0Z"/>
  <path class="st0" d="M825.03,285.04c-.01-.43-.2-.85-.51-1.15-.31-.29-.71-.44-1.12-.42l-12.56.35c-.42.01-.82.19-1.11.5-.29.31-.45.72-.43,1.15.02.87.75,1.58,1.61,1.57h.02s12.56-.35,12.56-.35c.88-.02,1.57-.77,1.55-1.66h0Z"/>
  <path class="st0" d="M813.32,273.95c-.17.39-.18.83-.03,1.23.24.63.84,1.04,1.5,1.04.19,0,.37-.04.55-.11l7.25-2.83-1.35-2.91-7.04,2.73c-.4.15-.71.46-.89.85h0Z"/>
  <path class="st0" d="M810.18,281.23c.16.76.82,1.3,1.54,1.29.08,0,.17-.01.26-.03l11.53-2.5c.82-.18,1.34-1.03,1.16-1.9-.09-.44-.35-.82-.71-1.05-.34-.22-.73-.29-1.11-.2l-11.51,2.5c-.82.18-1.34,1.03-1.16,1.9h0Z"/>
  <path class="st0" d="M815.69,268.31c.3.47.81.75,1.36.75.29,0,.58-.09.84-.25l1.59-1.03-.56-.89-.57-.91h0s-.58-.92-.58-.92l-1.59,1.03c-.36.23-.61.59-.7,1.01-.09.42-.01.85.21,1.21h0Z"/>
  <path class="st0" d="M807.79,308.01c.58,0,1.11-.34,1.39-.86.41-.79.11-1.76-.66-2.18h0c-7.12-3.81-11.27-8.09-11.44-8.27-.61-.64-1.62-.66-2.25-.05-.31.3-.48.7-.49,1.13-.01.43.15.84.44,1.15.18.19,4.56,4.78,12.25,8.89.23.12.5.19.76.19h0Z"/>
  <path class="st0" d="M802.93,311.49c.56,0,1.06-.3,1.35-.79.22-.37.28-.8.17-1.22-.11-.42-.37-.77-.74-.99-9.17-5.49-10.89-9.72-10.9-9.75-.28-.83-1.19-1.27-2.01-.99-.83.29-1.27,1.21-.99,2.05.07.21,1.87,5.23,12.29,11.47.25.15.54.23.83.22h0Z"/>
  <path class="st0" d="M813.19,303.69c.72,0,1.34-.51,1.52-1.22.1-.42.04-.85-.17-1.22-.22-.37-.57-.63-.98-.74-6.24-1.6-12.54-6.41-12.81-6.61-.69-.54-1.69-.41-2.23.3-.53.71-.4,1.72.29,2.26.28.22,6.97,5.38,13.96,7.19.14.03.27.05.41.05h0Z"/>
  <path class="st0" d="M727.16,292.79l-13.49.15,3.09,3.79,11.49-.14c-.73-1.27-1.03-2.6-1.09-3.81h0Z"/>
  <path class="st0" d="M766.91,305.53l-5.77-10.43c-.41-.74-1.19-1.2-2.03-1.19l-11.98.15c-.23,0-.33.28-.16.44.79.72,1.6,1.6,2.38,2.65.07.04.13.07.2.1l8.92-.11c.09,0,.18.05.22.13l4.4,7.94c.05.09.04.2-.03.29l-2.8,3.45c-.08.1-.22.12-.33.05-.36-.25-.74-.5-1.15-.74-1.25-.75-2.72-1.03-4.15-1.09-1.2-.04-2.49.2-3.58-.48-.69-.43-1.06-1.16-1.29-1.92-1.79-6.02-5.52-9.56-7.43-10.66-.94-.55-1.84-.5-2.48-.33,0,0,0,0,0,0-.28.06-.92.34-.92.34v.22s.07,1.53.07,1.53c.04.76,1.17,17.33,13.93,27.43,0,0,0,0,0,0,.06.04,2.17,1.61,3.06,2.15.13.08.26.17.4.25.43.26.89.52,1.37.78.08.04.13.13.13.22l.1,8.37,3.09-.04-.08-6.72c0-.11.07-.21.17-.24,1.12-.36,2.26-.61,3.43-.75l2.08-.26-1.92-.8c-2.55-1.06-4.83-2.19-6.76-3.34-10.25-6.14-13.92-16.99-15.2-23.1-.05-.24.25-.42.42-.24,1.59,1.62,2.76,3.68,3.49,6.12.67,2.24,2.39,4.76,6.74,4.71.67,0,1.35-.11,2.03-.03.67.08,1.28.42,1.86.77.7.43,1.54,1.05,2.27,1.68l.92.85s.04.04.06.05h0s2.05,1.9,2.05,1.9c.1.09.26.09.35-.02l1.71-1.9c.09-.1.09-.26-.01-.36l-2.34-2.18c.05-.04.09-.07.09-.07l3.72-4.6h-.01c.03-.06.08-.11.11-.15l.64-.85h0Z"/>
  <path class="st0" d="M759.66,285.99l1.32,2.32-1.89.02c-.21-.02-.4-.03-.58-.03-1.17-.6-4.04-2.11-8.83-4.73-2.46-1.35-3.47-2.68-3.88-3.68l13.86,6.1h0ZM749.9,269.15c.03-.06.07-.11.11-.16l6.99,12.32-2.95-1.29c-.75-1.46-2.87-5.66-4.04-8.89-.31-.85-.34-1.53-.11-1.97h0ZM766.88,284.71c.15-.35.55-.93,1.64-1.57.79,2.8,2.37,8.7,3.84,16.1-.8-1.33-1.62-2.68-2.41-3.98-.34-.55-.69-1.05-1.05-1.51l-2.06-8.24-.07-.22s-.01-.27.12-.57h0ZM748.16,286.41c1.4.76,2.63,1.44,3.71,2.02l-20.97.26-.36,1.09c-.11.34-1.02,3.3.44,5.52,0,0,1.3,1.6,2.52,1.84.65.2,1.39.29,2.21.28h.39c-.09-.77-.12-1.26-.13-1.38l-.06-.97-.05-.88h-.19c-.7.01-1.62-.09-2.02-.64-.26-.35-.36-.95-.3-1.67l2.37-.03,3.18-.04,3.4-.04h.82s15.54-.2,15.54-.2c1.94.04,5.8.93,8.54,5.41.08.13.15.26.23.38.83,1.36,1.65,2.72,2.48,4.09.79,1.31,1.57,2.62,2.36,3.93.67,1.12,1.34,2.25,2.01,3.38.48.81.96,1.62,1.44,2.43.15.24.29.49.44.74.25.43.42.87.55,1.35.22.81.35,1.64.46,2.47.18,1.44.25,2.9.27,4.35h.02l.12,9.79v.43s.06,4.5.06,4.5l3.18-.04-.17-14.72h.02c-.08-6.68-1.26-9.01-1.5-9.4-.02-.03-.87-1.48-2.16-3.64-2.3-14.75-5.9-26.51-5.94-26.63l-.51-1.65-1.6.61c-2.62,1-4.32,2.36-5.05,4.06-.6,1.39-.34,2.53-.19,2.97l.15.58-12.47-21.97-1.13.24c-.35.08-2.18.56-3.15,2.35-.71,1.3-.74,2.87-.1,4.65.67,1.86,1.63,4,2.47,5.78l-6.15-2.71-.64,1.47c-.09.22-2.23,5.43,5.45,9.63h0Z"/>
  <path class="st0" d="M783.34,316.8c.15.16.3.31.46.46.26.25.58.38.9.42.47.05.96-.12,1.3-.5.59-.64.55-1.64-.08-2.24-1.62-1.53-2.9-3.15-3.92-4.71.28.53,1.04,2.34,1.33,6.56h0Z"/>
  <path class="st0" d="M773.93,277.3h-.01c-.3,0-.58.1-.82.26l.35,1.14s.65,2.11,1.54,5.57c.32-1.57.56-3.43.52-5.42-.02-.87-.72-1.56-1.58-1.55h0Z"/>
  <path class="st0" d="M813.83,260.33h-.02s-.56-.09-.56-.09c-1.54,10.19-5.25,17.52-11.02,21.77-3.91,2.88-7.9,5.18-11.92,6.9-.31.13-.67.28-1.12.45,0,0,0,0,0,0-1.24.49-2.96,1.11-4.94,1.67-.54.15-1.09.31-1.63.44-1.77.44-3.67.79-5.57.96.31,1.34.62,2.76.93,4.26,1.27-.02,3.43-.25,6.67-1.21,10.79-3.09,19.5-9.57,24.67-18.4,2.82-4.82,4.75-10.56,5.58-16.61l-1.07-.15h0Z"/>
</svg>